<?xml version="1.0" encoding="UTF-8"?>
<!DOCTYPE svg PUBLIC "-//W3C//DTD SVG 1.1//EN" "http://www.w3.org/Graphics/SVG/1.1/DTD/svg11.dtd">
<svg xmlns="http://www.w3.org/2000/svg" version="1.1" width="624px" height="302px" style="shape-rendering:geometricPrecision; text-rendering:geometricPrecision; image-rendering:optimizeQuality; fill-rule:evenodd; clip-rule:evenodd" xmlns:xlink="http://www.w3.org/1999/xlink">
<g><path style="opacity:1" fill="#e67887" d="M 136.5,19.5 C 138.312,19.7713 139.978,20.438 141.5,21.5C 142.977,24.5914 144.644,27.5914 146.5,30.5C 147.325,31.3857 148.325,31.719 149.5,31.5C 151.772,38.1131 151.938,44.7797 150,51.5C 147.17,53.8098 145.003,56.4765 143.5,59.5C 143.743,64.6457 146.077,68.6457 150.5,71.5C 144.02,78.4579 138.52,86.1246 134,94.5C 132.708,95.7911 131.542,95.7911 130.5,94.5C 129.689,89.6097 128.189,84.943 126,80.5C 125.485,73.7154 124.319,67.0487 122.5,60.5C 120.073,47.8948 122.24,36.2281 129,25.5C 131.731,23.5822 134.231,21.5822 136.5,19.5 Z"/></g>
<g><path style="opacity:1" fill="#ce5f70" d="M 136.5,19.5 C 136.842,18.6618 137.508,18.3284 138.5,18.5C 142.059,18.4081 145.392,19.2415 148.5,21C 157.342,30.8517 162.675,42.3517 164.5,55.5C 162.143,55.3367 159.81,55.5034 157.5,56C 156.91,57.5095 156.244,59.0095 155.5,60.5C 151.688,57.0824 147.688,56.749 143.5,59.5C 145.003,56.4765 147.17,53.8098 150,51.5C 151.938,44.7797 151.772,38.1131 149.5,31.5C 148.325,31.719 147.325,31.3857 146.5,30.5C 144.644,27.5914 142.977,24.5914 141.5,21.5C 139.978,20.438 138.312,19.7713 136.5,19.5 Z"/></g>
<g><path style="opacity:1" fill="#cf6070" d="M 232.5,16.5 C 231.5,16.5 230.5,16.5 229.5,16.5C 227.843,23.4413 226.51,30.4413 225.5,37.5C 225.824,42.3935 226.991,47.0602 229,51.5C 234.946,56.0792 239.446,61.7459 242.5,68.5C 245.214,72.6208 248.381,76.2875 252,79.5C 252.499,75.5138 252.666,71.5138 252.5,67.5C 253.49,73.31 253.823,79.31 253.5,85.5C 249.833,81.3264 245.833,77.1598 241.5,73C 240.128,72.5983 238.795,72.0983 237.5,71.5C 236.516,68.5719 236.183,65.5719 236.5,62.5C 231.849,63.1861 229.183,61.1861 228.5,56.5C 227.667,56.1667 226.833,55.8333 226,55.5C 224.175,55.9434 222.342,56.2767 220.5,56.5C 219.473,46.8558 219.307,37.1891 220,27.5C 220.275,24.5877 221.109,21.921 222.5,19.5C 223.718,18.2689 225.051,17.1022 226.5,16C 228.712,15.2109 230.712,15.3775 232.5,16.5 Z"/></g>
<g><path style="opacity:1" fill="#f9c8ce" d="M 133.5,29.5 C 134.124,29.9169 134.457,30.5836 134.5,31.5C 131.59,36.8046 129.756,42.4713 129,48.5C 127.987,41.4116 129.487,35.0782 133.5,29.5 Z"/></g>
<g><path style="opacity:1" fill="#e97c8b" d="M 232.5,16.5 C 238.117,18.9492 242.283,22.9492 245,28.5C 249.583,41.0715 252.083,54.0715 252.5,67.5C 252.666,71.5138 252.499,75.5138 252,79.5C 248.381,76.2875 245.214,72.6208 242.5,68.5C 239.446,61.7459 234.946,56.0792 229,51.5C 226.991,47.0602 225.824,42.3935 225.5,37.5C 226.51,30.4413 227.843,23.4413 229.5,16.5C 230.5,16.5 231.5,16.5 232.5,16.5 Z"/></g>
<g><path style="opacity:0.78" fill="#5b2625" d="M 185.5,50.5 C 192.5,50.5 199.5,50.5 206.5,50.5C 207.833,51.5 207.833,52.5 206.5,53.5C 200.833,53.5 195.167,53.5 189.5,53.5C 187.781,52.9779 186.448,51.9779 185.5,50.5 Z"/></g>
<g><path style="opacity:1" fill="#e0bfc3" d="M 207.5,55.5 C 207.5,57.5 207.5,59.5 207.5,61.5C 203.5,61.5 199.5,61.5 195.5,61.5C 195.5,62.5 195.5,63.5 195.5,64.5C 194.651,62.1124 193.651,59.7791 192.5,57.5C 191.596,56.791 191.263,55.791 191.5,54.5C 196.87,54.3921 202.203,54.7255 207.5,55.5 Z"/></g>
<g><path style="opacity:1" fill="#ca7757" d="M 189.5,53.5 C 195.167,53.5 200.833,53.5 206.5,53.5C 206.833,54.1667 207.167,54.8333 207.5,55.5C 202.203,54.7255 196.87,54.3921 191.5,54.5C 191.263,55.791 191.596,56.791 192.5,57.5C 192.5,59.5 192.5,61.5 192.5,63.5C 190.5,63.5 188.5,63.5 186.5,63.5C 185.949,60.1933 185.616,56.8599 185.5,53.5C 186.833,53.5 188.167,53.5 189.5,53.5 Z"/></g>
<g><path style="opacity:1" fill="#902f20" d="M 222.5,19.5 C 221.109,21.921 220.275,24.5877 220,27.5C 219.307,37.1891 219.473,46.8558 220.5,56.5C 222.342,56.2767 224.175,55.9434 226,55.5C 226.833,55.8333 227.667,56.1667 228.5,56.5C 229.183,61.1861 231.849,63.1861 236.5,62.5C 236.183,65.5719 236.516,68.5719 237.5,71.5C 238.795,72.0983 240.128,72.5983 241.5,73C 245.833,77.1598 249.833,81.3264 253.5,85.5C 253.811,86.4778 254.478,87.1445 255.5,87.5C 256.013,91.1209 257.013,94.4542 258.5,97.5C 258.5,98.5 258.5,99.5 258.5,100.5C 259.5,100.5 260.5,100.5 261.5,100.5C 261.66,102.199 261.494,103.866 261,105.5C 260.329,106.252 259.496,106.586 258.5,106.5C 259.942,105.18 260.608,103.514 260.5,101.5C 258.167,101.5 255.833,101.5 253.5,101.5C 254.793,97.6163 255.459,93.6163 255.5,89.5C 254.448,89.6495 253.448,89.4828 252.5,89C 249.21,83.7748 245.21,79.1081 240.5,75C 238.541,74.0691 236.541,73.2357 234.5,72.5C 234.026,70.1384 233.692,67.805 233.5,65.5C 232.15,66.9501 230.484,67.6168 228.5,67.5C 228.664,64.8127 228.497,62.146 228,59.5C 227.047,57.4078 225.714,57.0745 224,58.5C 223.667,61.5 223.333,64.5 223,67.5C 221.284,68.5523 220.284,67.8856 220,65.5C 218.728,56.5375 217.895,47.5375 217.5,38.5C 217.337,32.8834 218.004,27.3834 219.5,22C 219.43,21.2352 219.097,20.7352 218.5,20.5C 219.759,17.4736 221.092,17.1403 222.5,19.5 Z"/></g>
<g><path style="opacity:1" fill="#e4b48e" d="M 207.5,55.5 C 207.972,57.5313 208.972,59.1979 210.5,60.5C 210.39,68.5246 210.724,76.5246 211.5,84.5C 209.204,84.8041 208.871,85.8041 210.5,87.5C 208.748,87.5824 207.748,86.7491 207.5,85C 208.815,77.1545 208.815,69.3212 207.5,61.5C 207.5,59.5 207.5,57.5 207.5,55.5 Z"/></g>
<g><path style="opacity:0.625" fill="#7c262a" d="M 151.5,15.5 C 151.631,16.2389 151.464,16.9056 151,17.5C 148.925,16.8656 146.759,16.5323 144.5,16.5C 142.048,16.5391 140.048,17.2057 138.5,18.5C 137.508,18.3284 136.842,18.6618 136.5,19.5C 134.231,21.5822 131.731,23.5822 129,25.5C 122.24,36.2281 120.073,47.8948 122.5,60.5C 124.319,67.0487 125.485,73.7154 126,80.5C 128.189,84.943 129.689,89.6097 130.5,94.5C 128.588,92.3428 126.921,90.0094 125.5,87.5C 124.168,86.1696 123.335,84.5029 123,82.5C 122.193,74.6545 120.86,66.9878 119,59.5C 116.533,42.9763 121.033,28.8096 132.5,17C 138.814,13.5971 145.147,13.0971 151.5,15.5 Z"/></g>
<g><path style="opacity:1" fill="#eb9a61" d="M 218.5,20.5 C 219.097,20.7352 219.43,21.2352 219.5,22C 218.004,27.3834 217.337,32.8834 217.5,38.5C 217.895,47.5375 218.728,56.5375 220,65.5C 220.284,67.8856 221.284,68.5523 223,67.5C 223.333,64.5 223.667,61.5 224,58.5C 225.714,57.0745 227.047,57.4078 228,59.5C 228.497,62.146 228.664,64.8127 228.5,67.5C 230.484,67.6168 232.15,66.9501 233.5,65.5C 233.692,67.805 234.026,70.1384 234.5,72.5C 236.541,73.2357 238.541,74.0691 240.5,75C 245.21,79.1081 249.21,83.7748 252.5,89C 253.448,89.4828 254.448,89.6495 255.5,89.5C 255.459,93.6163 254.793,97.6163 253.5,101.5C 255.833,101.5 258.167,101.5 260.5,101.5C 260.608,103.514 259.942,105.18 258.5,106.5C 257.833,107.167 257.167,107.833 256.5,108.5C 251.786,108.647 247.119,108.314 242.5,107.5C 242.586,106.504 242.252,105.671 241.5,105C 239.753,104.648 238.086,104.148 236.5,103.5C 234.88,99.3576 232.214,95.8576 228.5,93C 222.773,90.1363 217.106,87.3029 211.5,84.5C 210.724,76.5246 210.39,68.5246 210.5,60.5C 210.039,50.0543 210.872,39.721 213,29.5C 214.563,26.2729 216.397,23.2729 218.5,20.5 Z"/></g>
<g><path style="opacity:1" fill="#86321f" d="M 151.5,15.5 C 157.597,18.0657 163.097,21.7324 168,26.5C 173.269,33.3742 177.769,40.7075 181.5,48.5C 182.622,49.6302 183.956,50.2969 185.5,50.5C 186.448,51.9779 187.781,52.9779 189.5,53.5C 188.167,53.5 186.833,53.5 185.5,53.5C 185.616,56.8599 185.949,60.1933 186.5,63.5C 185.542,63.0472 184.708,62.3805 184,61.5C 182.891,57.2807 181.225,53.2807 179,49.5C 174.583,43.0015 170.416,36.3348 166.5,29.5C 161.866,24.8468 156.532,21.1802 150.5,18.5C 150.654,21.0197 152.154,23.0197 155,24.5C 157.333,28.8333 159.667,33.1667 162,37.5C 164.03,45.1586 165.864,52.8253 167.5,60.5C 166.5,60.5 165.5,60.5 164.5,60.5C 164.616,57.0897 162.95,55.7564 159.5,56.5C 159.5,59.1667 159.5,61.8333 159.5,64.5C 156.151,62.6852 152.651,61.0185 149,59.5C 146.294,61.1836 145.794,63.517 147.5,66.5C 150.196,67.8509 152.53,69.6843 154.5,72C 145.451,78.9209 138.951,87.7543 135,98.5C 132.667,99.1667 130.333,99.8333 128,100.5C 127.333,101.5 127.333,102.5 128,103.5C 130.566,104.007 132.733,105.174 134.5,107C 132.316,109.517 129.816,111.683 127,113.5C 125.872,115.345 125.372,117.345 125.5,119.5C 128.167,119.5 130.833,119.5 133.5,119.5C 133.12,122.745 131.953,125.745 130,128.5C 129.245,135.885 131.745,137.218 137.5,132.5C 138.484,135.428 138.817,138.428 138.5,141.5C 139.873,141.657 141.207,141.49 142.5,141C 144.996,139.446 147.163,137.613 149,135.5C 150.876,136.619 151.709,138.286 151.5,140.5C 154.644,140.044 157.644,139.044 160.5,137.5C 172.664,146.29 186.33,149.624 201.5,147.5C 202.167,147.5 202.5,147.833 202.5,148.5C 200.203,150.294 198.037,152.294 196,154.5C 189.037,164.954 181.204,174.62 172.5,183.5C 162.733,187.883 153.066,192.55 143.5,197.5C 140.489,200.012 137.656,202.678 135,205.5C 133.219,209.093 131.719,212.76 130.5,216.5C 129.596,215.791 129.263,214.791 129.5,213.5C 131.561,207.425 134.895,202.091 139.5,197.5C 150.664,191.742 161.664,185.909 172.5,180C 180.615,171.032 188.281,161.532 195.5,151.5C 188.268,149.816 180.934,148.316 173.5,147C 169.268,144.967 165.101,142.801 161,140.5C 158.194,141.241 155.527,142.241 153,143.5C 151.145,142.756 149.479,141.756 148,140.5C 144.931,143.096 141.431,143.929 137.5,143C 136.577,140.959 136.244,138.792 136.5,136.5C 132.774,136.177 129.107,136.511 125.5,137.5C 122.949,139.271 120.616,141.271 118.5,143.5C 116.223,144.449 114.223,145.782 112.5,147.5C 110.901,147.232 109.568,147.566 108.5,148.5C 97.2278,151.126 85.8945,153.96 74.5,157C 68.1367,159.562 62.47,163.062 57.5,167.5C 56.0783,167.709 54.745,168.209 53.5,169C 29.4502,189.975 19.4502,216.475 23.5,248.5C 22.1667,242.833 20.8333,237.167 19.5,231.5C 17.538,228.678 15.8713,225.678 14.5,222.5C 15.4972,222.53 16.1639,222.03 16.5,221C 15.7665,219.234 15.4332,217.401 15.5,215.5C 16.1667,215.5 16.5,215.833 16.5,216.5C 17.2172,218.937 18.2172,221.27 19.5,223.5C 26.3374,189.17 46.0041,165.67 78.5,153C 86.6798,150.593 95.0131,148.926 103.5,148C 111.176,144.744 118.342,140.578 125,135.5C 127.639,131.556 129.139,127.222 129.5,122.5C 128.022,122.762 126.689,122.429 125.5,121.5C 124.593,118.579 124.26,115.579 124.5,112.5C 122.5,112.5 120.5,112.5 118.5,112.5C 121.159,112.083 123.492,111.083 125.5,109.5C 126.756,109.539 127.756,109.039 128.5,108C 126.418,106.383 124.752,104.383 123.5,102C 125.212,100.077 126.546,97.9106 127.5,95.5C 126.518,92.9044 125.851,90.2377 125.5,87.5C 126.921,90.0094 128.588,92.3428 130.5,94.5C 131.542,95.7911 132.708,95.7911 134,94.5C 138.52,86.1246 144.02,78.4579 150.5,71.5C 146.077,68.6457 143.743,64.6457 143.5,59.5C 147.688,56.749 151.688,57.0824 155.5,60.5C 156.244,59.0095 156.91,57.5095 157.5,56C 159.81,55.5034 162.143,55.3367 164.5,55.5C 162.675,42.3517 157.342,30.8517 148.5,21C 145.392,19.2415 142.059,18.4081 138.5,18.5C 140.048,17.2057 142.048,16.5391 144.5,16.5C 146.759,16.5323 148.925,16.8656 151,17.5C 151.464,16.9056 151.631,16.2389 151.5,15.5 Z"/></g>
<g><path style="opacity:1" fill="#973c17" d="M 228.5,80.5 C 232.741,79.7498 236.074,81.0831 238.5,84.5C 238.333,84.8333 238.167,85.1667 238,85.5C 232.994,82.3571 228.661,83.0238 225,87.5C 224.333,86.5 224.333,85.5 225,84.5C 226.102,83.051 227.269,81.7177 228.5,80.5 Z"/></g>
<g><path style="opacity:0.843" fill="#7a2727" d="M 258.5,97.5 C 257.013,94.4542 256.013,91.1209 255.5,87.5C 254.478,87.1445 253.811,86.4778 253.5,85.5C 253.823,79.31 253.49,73.31 252.5,67.5C 252.083,54.0715 249.583,41.0715 245,28.5C 242.283,22.9492 238.117,18.9492 232.5,16.5C 230.712,15.3775 228.712,15.2109 226.5,16C 225.051,17.1022 223.718,18.2689 222.5,19.5C 221.092,17.1403 219.759,17.4736 218.5,20.5C 216.397,23.2729 214.563,26.2729 213,29.5C 210.872,39.721 210.039,50.0543 210.5,60.5C 208.972,59.1979 207.972,57.5313 207.5,55.5C 207.167,54.8333 206.833,54.1667 206.5,53.5C 207.833,52.5 207.833,51.5 206.5,50.5C 206.373,38.2985 209.707,27.1318 216.5,17C 224.651,10.9255 232.651,11.0922 240.5,17.5C 246.114,23.4954 249.948,30.4954 252,38.5C 255.615,57.9952 257.782,77.6618 258.5,97.5 Z"/></g>
<g><path style="opacity:1" fill="#ee9f63" d="M 186.5,63.5 C 188.5,63.5 190.5,63.5 192.5,63.5C 192.5,61.5 192.5,59.5 192.5,57.5C 193.651,59.7791 194.651,62.1124 195.5,64.5C 201.243,76.9357 197.909,86.1024 185.5,92C 182.382,97.5958 178.382,102.596 173.5,107C 161.679,108.771 150.012,110.937 138.5,113.5C 137.684,116.107 136.017,118.107 133.5,119.5C 130.833,119.5 128.167,119.5 125.5,119.5C 125.372,117.345 125.872,115.345 127,113.5C 129.816,111.683 132.316,109.517 134.5,107C 132.733,105.174 130.566,104.007 128,103.5C 127.333,102.5 127.333,101.5 128,100.5C 130.333,99.8333 132.667,99.1667 135,98.5C 138.951,87.7543 145.451,78.9209 154.5,72C 152.53,69.6843 150.196,67.8509 147.5,66.5C 145.794,63.517 146.294,61.1836 149,59.5C 152.651,61.0185 156.151,62.6852 159.5,64.5C 159.5,61.8333 159.5,59.1667 159.5,56.5C 162.95,55.7564 164.616,57.0897 164.5,60.5C 165.5,60.5 166.5,60.5 167.5,60.5C 165.864,52.8253 164.03,45.1586 162,37.5C 159.667,33.1667 157.333,28.8333 155,24.5C 152.154,23.0197 150.654,21.0197 150.5,18.5C 156.532,21.1802 161.866,24.8468 166.5,29.5C 170.416,36.3348 174.583,43.0015 179,49.5C 181.225,53.2807 182.891,57.2807 184,61.5C 184.708,62.3805 185.542,63.0472 186.5,63.5 Z"/></g>
<g><path style="opacity:1" fill="#98401d" d="M 168.5,83.5 C 172.96,82.8847 176.96,83.8847 180.5,86.5C 177.283,86.6582 173.95,86.8249 170.5,87C 163.319,90.2519 162.653,89.0853 168.5,83.5 Z"/></g>
<g><path style="opacity:0.507" fill="#daa073" d="M 617.5,114.5 C 616.022,114.762 614.689,114.429 613.5,113.5C 612.959,111.465 612.292,109.465 611.5,107.5C 607.861,113.16 605.527,112.826 604.5,106.5C 606.167,106.5 607.833,106.5 609.5,106.5C 609.5,105.5 609.5,104.5 609.5,103.5C 606.813,103.664 604.146,103.497 601.5,103C 600.663,101.989 600.33,100.822 600.5,99.5C 593.934,98.6653 587.934,99.8319 582.5,103C 579.167,103.333 575.833,103.667 572.5,104C 570.375,105.737 569.542,107.904 570,110.5C 571,109.167 572,109.167 573,110.5C 573.781,111.944 573.614,113.277 572.5,114.5C 571.145,112.071 569.478,110.738 567.5,110.5C 566.14,111.18 564.807,111.847 563.5,112.5C 564.296,107.914 566.796,104.581 571,102.5C 580.616,97.7594 590.783,96.2594 601.5,98C 607.629,99.1194 612.463,102.286 616,107.5C 617.202,109.677 617.702,112.011 617.5,114.5 Z"/></g>
<g><path style="opacity:1" fill="#fbf7f6" d="M 207.5,61.5 C 208.815,69.3212 208.815,77.1545 207.5,85C 207.748,86.7491 208.748,87.5824 210.5,87.5C 219.23,89.6894 226.73,94.0227 233,100.5C 234.102,107.771 232.269,114.104 227.5,119.5C 223.063,121.043 219.23,120.043 216,116.5C 215.506,114.866 215.34,113.199 215.5,111.5C 219.026,109.99 221.86,107.656 224,104.5C 224.678,102.402 224.511,100.402 223.5,98.5C 222.653,97.0337 221.32,96.2004 219.5,96C 216.518,95.502 213.518,95.3354 210.5,95.5C 204.94,94.2704 201.94,96.437 201.5,102C 201.99,104.503 203.323,106.503 205.5,108C 207.852,108.24 209.852,109.073 211.5,110.5C 213.568,114.697 212.235,116.864 207.5,117C 200.194,124.534 192.194,125.367 183.5,119.5C 181.833,116.833 180.167,114.167 178.5,111.5C 178.167,112.167 177.833,112.833 177.5,113.5C 180.336,121.5 186.002,125.333 194.5,125C 196.853,127.917 199.52,130.417 202.5,132.5C 205.353,133.954 208.353,134.954 211.5,135.5C 206.979,136.431 202.313,136.597 197.5,136C 203.37,140.486 209.37,140.653 215.5,136.5C 216.043,136.44 216.376,136.107 216.5,135.5C 215.271,134.719 213.938,134.219 212.5,134C 214.871,133.265 217.205,132.432 219.5,131.5C 223.651,129.013 227.651,126.346 231.5,123.5C 236.058,118.638 239.725,113.305 242.5,107.5C 247.119,108.314 251.786,108.647 256.5,108.5C 256.328,109.492 256.662,110.158 257.5,110.5C 257.5,111.833 257.5,113.167 257.5,114.5C 257.018,115.416 256.685,116.416 256.5,117.5C 258.14,120.468 260.14,123.135 262.5,125.5C 262.5,126.167 262.833,126.5 263.5,126.5C 263.5,127.833 264.167,128.5 265.5,128.5C 265.586,129.496 265.252,130.329 264.5,131C 262.294,131.977 260.294,133.143 258.5,134.5C 256.365,134.147 255.032,134.98 254.5,137C 256.519,139.517 257.853,142.35 258.5,145.5C 256.459,148.528 254.459,151.528 252.5,154.5C 248.978,154.854 245.978,156.187 243.5,158.5C 239.643,158.383 236.976,156.55 235.5,153C 228.343,147.669 220.343,144.502 211.5,143.5C 208.774,143.682 206.107,144.182 203.5,145C 202.619,145.708 201.953,146.542 201.5,147.5C 186.33,149.624 172.664,146.29 160.5,137.5C 157.644,139.044 154.644,140.044 151.5,140.5C 151.709,138.286 150.876,136.619 149,135.5C 147.163,137.613 144.996,139.446 142.5,141C 141.207,141.49 139.873,141.657 138.5,141.5C 138.817,138.428 138.484,135.428 137.5,132.5C 131.745,137.218 129.245,135.885 130,128.5C 131.953,125.745 133.12,122.745 133.5,119.5C 136.017,118.107 137.684,116.107 138.5,113.5C 150.012,110.937 161.679,108.771 173.5,107C 178.382,102.596 182.382,97.5958 185.5,92C 197.909,86.1024 201.243,76.9357 195.5,64.5C 195.5,63.5 195.5,62.5 195.5,61.5C 199.5,61.5 203.5,61.5 207.5,61.5 Z"/></g>
<g><path style="opacity:1" fill="#761916" d="M 210.5,95.5 C 212.969,96.3171 215.635,96.8171 218.5,97C 215.118,97.1764 211.785,97.6764 208.5,98.5C 208.709,99.086 209.043,99.586 209.5,100C 212.817,100.498 216.15,100.665 219.5,100.5C 219.351,99.448 219.517,98.448 220,97.5C 221.011,98.3366 222.178,98.67 223.5,98.5C 224.511,100.402 224.678,102.402 224,104.5C 221.86,107.656 219.026,109.99 215.5,111.5C 214.167,111.167 212.833,110.833 211.5,110.5C 209.852,109.073 207.852,108.24 205.5,108C 203.323,106.503 201.99,104.503 201.5,102C 201.94,96.437 204.94,94.2704 210.5,95.5 Z"/></g>
<g><path style="opacity:1" fill="#a66d6c" d="M 210.5,95.5 C 213.518,95.3354 216.518,95.502 219.5,96C 221.32,96.2004 222.653,97.0337 223.5,98.5C 222.178,98.67 221.011,98.3366 220,97.5C 219.517,98.448 219.351,99.448 219.5,100.5C 216.15,100.665 212.817,100.498 209.5,100C 209.043,99.586 208.709,99.086 208.5,98.5C 211.785,97.6764 215.118,97.1764 218.5,97C 215.635,96.8171 212.969,96.3171 210.5,95.5 Z"/></g>
<g><path style="opacity:1" fill="#814646" d="M 211.5,84.5 C 217.106,87.3029 222.773,90.1363 228.5,93C 232.214,95.8576 234.88,99.3576 236.5,103.5C 235.942,109.385 233.942,114.718 230.5,119.5C 227.909,121.739 224.909,123.239 221.5,124C 216.939,130.611 210.606,133.444 202.5,132.5C 199.52,130.417 196.853,127.917 194.5,125C 186.002,125.333 180.336,121.5 177.5,113.5C 177.833,112.833 178.167,112.167 178.5,111.5C 180.167,114.167 181.833,116.833 183.5,119.5C 192.194,125.367 200.194,124.534 207.5,117C 212.235,116.864 213.568,114.697 211.5,110.5C 212.833,110.833 214.167,111.167 215.5,111.5C 215.34,113.199 215.506,114.866 216,116.5C 219.23,120.043 223.063,121.043 227.5,119.5C 232.269,114.104 234.102,107.771 233,100.5C 226.73,94.0227 219.23,89.6894 210.5,87.5C 208.871,85.8041 209.204,84.8041 211.5,84.5 Z"/></g>
<g><path style="opacity:1" fill="#722a29" d="M 258.5,97.5 C 262.483,97.306 264.483,99.1394 264.5,103C 264.252,104.716 263.585,106.216 262.5,107.5C 267.465,110.852 267.799,114.685 263.5,119C 268.933,122.737 272.266,127.737 273.5,134C 271.624,140.249 267.291,142.915 260.5,142C 261.617,145.073 261.784,148.24 261,151.5C 258.94,152.761 257.44,154.428 256.5,156.5C 255.167,156.833 253.833,157.167 252.5,157.5C 252.5,156.5 252.5,155.5 252.5,154.5C 254.459,151.528 256.459,148.528 258.5,145.5C 257.853,142.35 256.519,139.517 254.5,137C 255.032,134.98 256.365,134.147 258.5,134.5C 260.465,135.129 262.465,135.796 264.5,136.5C 267.968,135.901 269.135,133.901 268,130.5C 267.292,129.619 266.458,128.953 265.5,128.5C 265.167,127.5 264.5,126.833 263.5,126.5C 262.833,126.5 262.5,126.167 262.5,125.5C 260.14,123.135 258.14,120.468 256.5,117.5C 256.685,116.416 257.018,115.416 257.5,114.5C 258.5,114.5 259.5,114.5 260.5,114.5C 260.532,112.381 259.532,111.048 257.5,110.5C 256.662,110.158 256.328,109.492 256.5,108.5C 257.167,107.833 257.833,107.167 258.5,106.5C 259.496,106.586 260.329,106.252 261,105.5C 261.494,103.866 261.66,102.199 261.5,100.5C 260.5,100.5 259.5,100.5 258.5,100.5C 258.5,99.5 258.5,98.5 258.5,97.5 Z"/></g>
<g><path style="opacity:1" fill="#ea9c63" d="M 517.5,137.5 C 521.312,132.807 521.479,127.807 518,122.5C 515.157,119.989 512.657,117.156 510.5,114C 504.84,111.111 501.006,112.611 499,118.5C 496.253,119.934 494.753,122.267 494.5,125.5C 493.575,126.641 492.741,126.641 492,125.5C 492.826,134.906 493.326,144.406 493.5,154C 492.325,158.389 491.659,162.889 491.5,167.5C 492.5,167.5 493.5,167.5 494.5,167.5C 494.4,170.667 495.067,173.667 496.5,176.5C 493.833,177.167 491.167,177.833 488.5,178.5C 487.94,180.854 487.273,183.187 486.5,185.5C 485.575,186.641 484.741,186.641 484,185.5C 483.833,186 483.667,186.5 483.5,187C 485.377,190.05 487.377,192.883 489.5,195.5C 486.956,195.896 484.789,195.229 483,193.5C 482.601,193.728 482.435,194.062 482.5,194.5C 481.199,192.409 479.699,190.409 478,188.5C 477.5,179.84 477.334,171.173 477.5,162.5C 476.5,162.5 475.5,162.5 474.5,162.5C 474.937,167.361 474.437,172.028 473,176.5C 471.893,169.91 471.393,163.243 471.5,156.5C 470.561,144.736 472.228,133.403 476.5,122.5C 476.457,121.584 476.124,120.917 475.5,120.5C 475.157,118.517 475.824,117.183 477.5,116.5C 477.369,117.239 477.536,117.906 478,118.5C 480.354,113.142 483.854,108.642 488.5,105C 490.047,104.667 491.38,105.167 492.5,106.5C 494.624,103.261 497.457,102.595 501,104.5C 503.527,104.33 504.027,103.33 502.5,101.5C 503.787,98.7188 505.787,98.0521 508.5,99.5C 509.833,101.167 509.833,102.833 508.5,104.5C 509.167,105.167 509.833,105.833 510.5,106.5C 514.122,107.325 517.789,107.825 521.5,108C 522.424,109.489 523.424,109.656 524.5,108.5C 523.5,107.167 522.5,105.833 521.5,104.5C 522.723,103.386 524.056,103.219 525.5,104C 527.853,107.405 529.02,111.238 529,115.5C 530.011,116.337 531.178,116.67 532.5,116.5C 532.864,122.03 534.197,126.863 536.5,131C 534.753,135.531 533.92,140.365 534,145.5C 532.954,143.91 531.787,142.41 530.5,141C 529.216,140.316 528.049,140.483 527,141.5C 526.812,143.476 526.979,145.476 527.5,147.5C 524.601,152.132 522.935,156.466 522.5,160.5C 520.97,158.774 519.97,156.774 519.5,154.5C 520.542,150.201 520.709,145.868 520,141.5C 517.236,140.975 516.402,139.642 517.5,137.5 Z"/></g>
<g><path style="opacity:1" fill="#f8eeed" d="M 207.5,119.5 C 223.423,119.161 224.423,122.661 210.5,130C 208.246,131.15 205.913,131.484 203.5,131C 202.271,129.471 200.771,128.304 199,127.5C 198.517,126.552 198.351,125.552 198.5,124.5C 202.468,124.523 205.468,122.856 207.5,119.5 Z"/></g>
<g><path style="opacity:1" fill="#debec0" d="M 236.5,103.5 C 238.086,104.148 239.753,104.648 241.5,105C 242.252,105.671 242.586,106.504 242.5,107.5C 239.725,113.305 236.058,118.638 231.5,123.5C 227.651,126.346 223.651,129.013 219.5,131.5C 217.205,132.432 214.871,133.265 212.5,134C 213.938,134.219 215.271,134.719 216.5,135.5C 216.376,136.107 216.043,136.44 215.5,136.5C 214.432,135.566 213.099,135.232 211.5,135.5C 208.353,134.954 205.353,133.954 202.5,132.5C 210.606,133.444 216.939,130.611 221.5,124C 224.909,123.239 227.909,121.739 230.5,119.5C 233.942,114.718 235.942,109.385 236.5,103.5 Z"/></g>
<g><path style="opacity:1" fill="#e59d68" d="M 320.5,193.5 C 319.418,191.177 319.585,188.843 321,186.5C 321.71,185.027 322.876,184.36 324.5,184.5C 324.5,182.833 324.5,181.167 324.5,179.5C 325.5,179.5 326.5,179.5 327.5,179.5C 327.595,176.642 328.762,174.309 331,172.5C 331.495,170.527 331.662,168.527 331.5,166.5C 329.897,166.312 328.563,166.812 327.5,168C 328.731,169.183 328.731,170.349 327.5,171.5C 326.015,169.148 324.682,166.814 323.5,164.5C 327.942,164.116 328.276,163.116 324.5,161.5C 323.702,159.922 323.202,158.256 323,156.5C 320.39,163.723 317.223,170.723 313.5,177.5C 310.538,179.034 307.538,179.367 304.5,178.5C 303.863,168.536 303.197,158.369 302.5,148C 301.693,142.465 300.693,136.965 299.5,131.5C 297.253,132.374 294.92,132.708 292.5,132.5C 292.238,133.978 292.571,135.311 293.5,136.5C 294.736,135.754 296.07,135.421 297.5,135.5C 296.971,140.822 296.471,146.156 296,151.5C 294.989,152.337 293.822,152.67 292.5,152.5C 292.241,164.963 290.907,177.297 288.5,189.5C 288.747,192.349 289.413,195.016 290.5,197.5C 289.167,197.5 287.833,197.5 286.5,197.5C 288.259,173.196 289.592,148.863 290.5,124.5C 301.516,120.813 312.85,119.646 324.5,121C 327.687,122.348 330.687,124.014 333.5,126C 334.57,128.742 336.07,131.242 338,133.5C 338.805,139.072 339.971,144.572 341.5,150C 339.901,156.335 338.735,162.835 338,169.5C 334.198,179.113 328.365,187.113 320.5,193.5 Z M 312.5,139.5 C 318.421,140.785 321.088,144.618 320.5,151C 320.388,158.389 318.388,165.223 314.5,171.5C 311.787,173.733 308.787,175.4 305.5,176.5C 307.154,167.607 308.154,158.607 308.5,149.5C 308.46,147.571 308.127,145.738 307.5,144C 309.271,142.476 310.938,140.976 312.5,139.5 Z"/></g>
<g><path style="opacity:1" fill="#d39e71" d="M 118.5,112.5 C 120.5,112.5 122.5,112.5 124.5,112.5C 124.26,115.579 124.593,118.579 125.5,121.5C 126.689,122.429 128.022,122.762 129.5,122.5C 129.139,127.222 127.639,131.556 125,135.5C 118.342,140.578 111.176,144.744 103.5,148C 95.0131,148.926 86.6798,150.593 78.5,153C 46.0041,165.67 26.3374,189.17 19.5,223.5C 18.2172,221.27 17.2172,218.937 16.5,216.5C 17.4972,216.53 18.1639,216.03 18.5,215C 21.5273,205.012 25.5273,195.512 30.5,186.5C 41.5954,169.078 56.9287,156.578 76.5,149C 86.9278,146.25 97.2611,143.25 107.5,140C 111.053,137.61 114.053,134.776 116.5,131.5C 117.833,126.167 117.833,120.833 116.5,115.5C 116.782,114.222 117.449,113.222 118.5,112.5 Z"/></g>
<g><path style="opacity:0.881" fill="#dba37a" d="M 475.5,120.5 C 476.124,120.917 476.457,121.584 476.5,122.5C 472.228,133.403 470.561,144.736 471.5,156.5C 471.393,163.243 471.893,169.91 473,176.5C 474.437,172.028 474.937,167.361 474.5,162.5C 475.5,162.5 476.5,162.5 477.5,162.5C 477.334,171.173 477.5,179.84 478,188.5C 479.699,190.409 481.199,192.409 482.5,194.5C 482.5,194.833 482.5,195.167 482.5,195.5C 480.983,195.489 479.816,194.823 479,193.5C 469.874,181.003 466.707,167.337 469.5,152.5C 468.937,144.829 469.604,137.162 471.5,129.5C 472.612,126.287 473.945,123.287 475.5,120.5 Z"/></g>
<g><path style="opacity:1" fill="#8e6d6f" d="M 211.5,135.5 C 213.099,135.232 214.432,135.566 215.5,136.5C 209.37,140.653 203.37,140.486 197.5,136C 202.313,136.597 206.979,136.431 211.5,135.5 Z"/></g>
<g><path style="opacity:1" fill="#e2a16f" d="M 349.5,164.5 C 350.325,168.647 350.825,172.981 351,177.5C 353.221,180.805 354.388,184.471 354.5,188.5C 357.439,188.918 359.772,190.418 361.5,193C 365.139,193.935 368.806,194.768 372.5,195.5C 375.575,195.984 377.909,194.984 379.5,192.5C 378.311,191.571 376.978,191.238 375.5,191.5C 375.5,189.5 375.5,187.5 375.5,185.5C 377.527,185.662 379.527,185.495 381.5,185C 380.62,183.644 380.286,182.144 380.5,180.5C 385.667,181.508 387.334,179.675 385.5,175C 383.866,174.506 382.199,174.34 380.5,174.5C 380.649,173.448 380.483,172.448 380,171.5C 379.292,172.381 378.458,173.047 377.5,173.5C 378.258,170.513 379.091,167.513 380,164.5C 380.667,156.167 380.667,147.833 380,139.5C 379.385,137.884 378.385,136.551 377,135.5C 374.29,137.445 372.79,140.112 372.5,143.5C 371.275,142.848 370.608,141.681 370.5,140C 370.917,137.502 371.251,135.002 371.5,132.5C 374.119,132.232 376.619,132.565 379,133.5C 379.667,130.833 379.667,128.167 379,125.5C 378.161,124.376 376.994,123.709 375.5,123.5C 368.926,124.287 363.26,126.954 358.5,131.5C 357.545,136.065 356.045,140.398 354,144.5C 353.667,144.167 353.333,143.833 353,143.5C 352.641,148.818 351.474,153.818 349.5,158.5C 348.503,158.53 347.836,158.03 347.5,157C 349.013,148.107 351.68,139.607 355.5,131.5C 363.366,119.744 374.033,116.244 387.5,121C 394.001,124.129 397.834,129.296 399,136.5C 401.137,150.218 400.804,163.885 398,177.5C 394.792,186.458 388.958,192.958 380.5,197C 360.33,199.515 349.33,190.515 347.5,170C 347.547,167.705 348.213,165.871 349.5,164.5 Z"/></g>
<g><path style="opacity:1" fill="#834a37" d="M 243.5,158.5 C 243.557,159.609 243.89,160.609 244.5,161.5C 242.857,161.52 241.524,160.853 240.5,159.5C 239.893,159.624 239.56,159.957 239.5,160.5C 234.041,154.266 227.375,149.766 219.5,147C 213.522,144.575 207.855,145.075 202.5,148.5C 202.5,147.833 202.167,147.5 201.5,147.5C 201.953,146.542 202.619,145.708 203.5,145C 206.107,144.182 208.774,143.682 211.5,143.5C 220.343,144.502 228.343,147.669 235.5,153C 236.976,156.55 239.643,158.383 243.5,158.5 Z"/></g>
<g><path style="opacity:1" fill="#eec089" d="M 116.5,115.5 C 117.833,120.833 117.833,126.167 116.5,131.5C 117.228,127.781 116.228,124.781 113.5,122.5C 113.709,121.914 114.043,121.414 114.5,121C 113.167,120.333 111.833,120.333 110.5,121C 107.824,122.742 105.491,124.908 103.5,127.5C 97.7368,128.739 93.7368,132.239 91.5,138C 87.2903,138.477 83.957,139.81 81.5,142C 79.8333,142.333 78.1667,142.667 76.5,143C 75.6243,144.585 74.2909,145.585 72.5,146C 59.8559,149.072 47.5226,152.572 35.5,156.5C 39.6465,153.162 44.3132,150.662 49.5,149C 59.8021,146.591 69.8021,143.257 79.5,139C 89.9793,132.017 100.313,124.85 110.5,117.5C 112.323,116.253 114.323,115.586 116.5,115.5 Z"/></g>
<g><path style="opacity:1" fill="#f0d18a" d="M 239.5,160.5 C 241.996,164.173 243.829,168.173 245,172.5C 245.667,180.5 245.667,188.5 245,196.5C 244.768,197.737 244.268,198.737 243.5,199.5C 233.088,230.432 213.088,253.265 183.5,268C 174.413,271.388 165.079,272.221 155.5,270.5C 146.201,266.696 139.367,260.363 135,251.5C 133.315,246.491 131.648,241.491 130,236.5C 129.181,230.319 129.347,224.319 130.5,218.5C 130.243,224.898 130.743,231.231 132,237.5C 132.494,235.866 132.66,234.199 132.5,232.5C 133.833,232.5 135.167,232.5 136.5,232.5C 136.137,227.231 136.971,222.231 139,217.5C 140.356,216.62 141.856,216.286 143.5,216.5C 143.694,211.475 146.361,208.975 151.5,209C 153.888,203.141 158.221,200.974 164.5,202.5C 164.587,198.759 166.587,196.759 170.5,196.5C 171.747,194.994 171.747,193.494 170.5,192C 168.19,191.503 165.857,191.337 163.5,191.5C 167.034,189.51 170.034,186.843 172.5,183.5C 181.204,174.62 189.037,164.954 196,154.5C 198.037,152.294 200.203,150.294 202.5,148.5C 207.855,145.075 213.522,144.575 219.5,147C 227.375,149.766 234.041,154.266 239.5,160.5 Z"/></g>
<g><path style="opacity:1" fill="#e69d67" d="M 617.5,114.5 C 618.584,120.783 618.751,127.116 618,133.5C 617.5,134 617,134.5 616.5,135C 609.5,135.667 602.5,135.667 595.5,135C 595,134.5 594.5,134 594,133.5C 593.828,128.798 593.328,124.132 592.5,119.5C 591.833,119.167 591.167,118.833 590.5,118.5C 585.511,123.751 585.178,129.417 589.5,135.5C 598.069,140.409 605.736,146.409 612.5,153.5C 621.362,170.417 618.696,185.083 604.5,197.5C 585.997,204.425 568.664,202.425 552.5,191.5C 551.359,189.579 551.192,187.579 552,185.5C 554.409,180.763 556.909,176.096 559.5,171.5C 560.167,171.167 560.833,170.833 561.5,170.5C 564.173,172.043 566.84,173.376 569.5,174.5C 569.196,175.15 568.863,175.817 568.5,176.5C 574.699,180.185 581.365,181.352 588.5,180C 591.032,177.471 592.698,174.471 593.5,171C 592.756,169.145 591.756,167.479 590.5,166C 592.936,164.668 592.936,163.501 590.5,162.5C 589.549,163.326 588.549,163.492 587.5,163C 585.045,159.589 582.045,156.755 578.5,154.5C 575.865,157.506 573.865,157.172 572.5,153.5C 570.167,152.833 567.833,152.167 565.5,151.5C 563.054,147.855 561.221,143.855 560,139.5C 559.793,133.086 559.293,126.753 558.5,120.5C 559.339,118.219 560.339,115.885 561.5,113.5C 561.957,112.702 562.624,112.369 563.5,112.5C 564.807,111.847 566.14,111.18 567.5,110.5C 569.478,110.738 571.145,112.071 572.5,114.5C 573.614,113.277 573.781,111.944 573,110.5C 572,109.167 571,109.167 570,110.5C 569.542,107.904 570.375,105.737 572.5,104C 575.833,103.667 579.167,103.333 582.5,103C 587.934,99.8319 593.934,98.6653 600.5,99.5C 600.33,100.822 600.663,101.989 601.5,103C 604.146,103.497 606.813,103.664 609.5,103.5C 609.5,104.5 609.5,105.5 609.5,106.5C 607.833,106.5 606.167,106.5 604.5,106.5C 605.527,112.826 607.861,113.16 611.5,107.5C 612.292,109.465 612.959,111.465 613.5,113.5C 614.689,114.429 616.022,114.762 617.5,114.5 Z"/></g>
<g><path style="opacity:0.776" fill="#d9a172" d="M 422.5,128.5 C 421.989,131.028 421.322,133.528 420.5,136C 420.844,137.365 421.511,138.532 422.5,139.5C 420.647,140.76 418.814,140.76 417,139.5C 416.333,140.167 415.667,140.833 415,141.5C 413.275,149.574 412.108,157.741 411.5,166C 413.365,173.077 414.865,180.244 416,187.5C 418.797,189.783 420.964,192.449 422.5,195.5C 419.86,195.046 417.527,193.879 415.5,192C 410.584,184.432 408.584,176.099 409.5,167C 408.431,153.095 411.931,140.595 420,129.5C 420.671,128.748 421.504,128.414 422.5,128.5 Z"/></g>
<g><path style="opacity:1" fill="#f19a63" d="M 108.5,148.5 C 108.833,151.5 107.5,152.833 104.5,152.5C 104.336,155.187 104.503,157.854 105,160.5C 114.265,169.535 125.432,173.535 138.5,172.5C 138.5,173.5 138.5,174.5 138.5,175.5C 142.137,175.487 145.137,176.82 147.5,179.5C 147.023,180.478 146.357,181.311 145.5,182C 140.5,182.667 135.5,182.667 130.5,182C 117.449,177.873 105.116,172.206 93.5,165C 86.9758,162.537 80.3091,162.037 73.5,163.5C 72.8333,164.833 71.8333,165.833 70.5,166.5C 69.5344,168.396 69.2011,170.396 69.5,172.5C 68.5,172.5 67.5,172.5 66.5,172.5C 66.6621,170.473 66.4955,168.473 66,166.5C 65.6121,165.572 64.9454,164.905 64,164.5C 62.3058,166.429 60.1391,167.429 57.5,167.5C 62.47,163.062 68.1367,159.562 74.5,157C 85.8945,153.96 97.2278,151.126 108.5,148.5 Z"/></g>
<g><path style="opacity:1" fill="#f19a64" d="M 147.5,148.5 C 149.905,149.768 152.572,150.435 155.5,150.5C 162.039,151.714 165.372,155.714 165.5,162.5C 163.194,162.007 160.861,161.674 158.5,161.5C 148.365,156.949 138.032,152.449 127.5,148C 122.511,147.501 117.511,147.334 112.5,147.5C 114.223,145.782 116.223,144.449 118.5,143.5C 120.156,142.854 121.823,142.187 123.5,141.5C 127.797,142.637 131.464,144.803 134.5,148C 138.821,148.499 143.154,148.666 147.5,148.5 Z"/></g>
<g><path style="opacity:1" fill="#f19d63" d="M 164.5,168.5 C 165.61,175.914 162.444,180.581 155,182.5C 154.79,181.197 154.957,179.864 155.5,178.5C 155.253,177.287 154.586,176.62 153.5,176.5C 149.653,173.435 145.32,171.101 140.5,169.5C 135.51,168.62 130.51,167.787 125.5,167C 121.714,165.17 117.714,163.837 113.5,163C 110.028,158.209 111.028,154.875 116.5,153C 120.5,152.333 124.5,152.333 128.5,153C 138.158,157.819 147.825,162.486 157.5,167C 159.813,167.662 162.146,168.162 164.5,168.5 Z"/></g>
<g><path style="opacity:0.776" fill="#733022" d="M 125.5,109.5 C 123.492,111.083 121.159,112.083 118.5,112.5C 117.449,113.222 116.782,114.222 116.5,115.5C 114.323,115.586 112.323,116.253 110.5,117.5C 100.313,124.85 89.9793,132.017 79.5,139C 69.8021,143.257 59.8021,146.591 49.5,149C 44.3132,150.662 39.6465,153.162 35.5,156.5C 25.5548,161.778 18.8881,169.778 15.5,180.5C 13.3875,185.663 12.3875,191.163 12.5,197C 12.5391,203.459 13.5391,209.626 15.5,215.5C 15.4332,217.401 15.7665,219.234 16.5,221C 16.1639,222.03 15.4972,222.53 14.5,222.5C 2.38771,192.299 9.72105,168.299 36.5,150.5C 50.1526,146.256 63.6526,141.589 77,136.5C 90.0054,127.331 103.172,118.664 116.5,110.5C 119.449,109.698 122.449,109.364 125.5,109.5 Z"/></g>
<g><path style="opacity:1" fill="#e09f6d" d="M 450.5,191.5 C 450.119,190.069 449.119,189.236 447.5,189C 448.641,188.259 448.641,187.425 447.5,186.5C 448.628,185.738 449.795,185.071 451,184.5C 453,182.024 454.167,179.524 454.5,177C 452.974,175.411 451.807,173.577 451,171.5C 450.727,166.771 450.061,162.104 449,157.5C 446.667,156.167 444.333,156.167 442,157.5C 440.923,160.888 440.59,164.221 441,167.5C 439.559,168.87 437.892,169.87 436,170.5C 433.887,172.271 434.053,173.771 436.5,175C 436.272,175.399 435.938,175.565 435.5,175.5C 434.5,175.5 433.5,175.5 432.5,175.5C 432.335,172.15 432.502,168.817 433,165.5C 434.107,162.775 434.941,159.941 435.5,157C 456.52,149.605 464.353,156.771 459,178.5C 458.093,182.573 456.426,186.239 454,189.5C 452.887,190.305 451.721,190.972 450.5,191.5 Z"/></g>
<g><path style="opacity:1" fill="#cc7452" d="M 261.5,163.5 C 260.833,163.5 260.5,163.833 260.5,164.5C 260.629,166.216 260.962,167.883 261.5,169.5C 259.955,168.77 259.122,167.437 259,165.5C 258.722,166.416 258.222,167.082 257.5,167.5C 256.414,167.62 255.747,168.287 255.5,169.5C 253.625,177.751 252.291,186.085 251.5,194.5C 251.747,195.713 252.414,196.38 253.5,196.5C 251.735,197.461 249.735,197.795 247.5,197.5C 247.976,186.721 247.31,176.055 245.5,165.5C 250.005,165.559 253.671,163.892 256.5,160.5C 258.764,159.781 261.097,159.448 263.5,159.5C 263.473,161.199 262.806,162.533 261.5,163.5 Z"/></g>
<g><path style="opacity:1" fill="#d99e6f" d="M 558.5,120.5 C 559.293,126.753 559.793,133.086 560,139.5C 561.221,143.855 563.054,147.855 565.5,151.5C 567.833,152.167 570.167,152.833 572.5,153.5C 573.865,157.172 575.865,157.506 578.5,154.5C 582.045,156.755 585.045,159.589 587.5,163C 588.549,163.492 589.549,163.326 590.5,162.5C 592.936,163.501 592.936,164.668 590.5,166C 591.756,167.479 592.756,169.145 593.5,171C 592.698,174.471 591.032,177.471 588.5,180C 581.365,181.352 574.699,180.185 568.5,176.5C 568.863,175.817 569.196,175.15 569.5,174.5C 574.575,178.148 580.241,179.315 586.5,178C 587.184,176.307 588.184,174.807 589.5,173.5C 588.041,171.417 586.708,169.25 585.5,167C 580.588,163.717 575.588,160.717 570.5,158C 567.098,155.51 563.932,152.677 561,149.5C 556.09,140.082 555.257,130.415 558.5,120.5 Z"/></g>
<g><path style="opacity:0.745" fill="#6e2423" d="M 263.5,197.5 C 263.146,194.579 264.146,192.246 266.5,190.5C 266.376,189.893 266.043,189.56 265.5,189.5C 265.5,188.5 265.5,187.5 265.5,186.5C 268.084,185.952 269.084,184.285 268.5,181.5C 266.833,181.5 265.167,181.5 263.5,181.5C 263.351,180.448 263.517,179.448 264,178.5C 267.066,176.959 269.566,174.792 271.5,172C 270.26,169.668 268.927,167.502 267.5,165.5C 265.089,166.361 263.089,167.694 261.5,169.5C 260.962,167.883 260.629,166.216 260.5,164.5C 261.167,164.5 261.5,164.167 261.5,163.5C 262.806,162.533 263.473,161.199 263.5,159.5C 261.097,159.448 258.764,159.781 256.5,160.5C 257.11,159.609 257.443,158.609 257.5,157.5C 261.54,156.077 265.54,156.243 269.5,158C 275.705,165.902 277.205,174.735 274,184.5C 271.023,189.305 267.523,193.638 263.5,197.5 Z"/></g>
<g><path style="opacity:1" fill="#e79d66" d="M 435.5,175.5 C 435.938,175.565 436.272,175.399 436.5,175C 434.053,173.771 433.887,172.271 436,170.5C 437.892,169.87 439.559,168.87 441,167.5C 440.59,164.221 440.923,160.888 442,157.5C 444.333,156.167 446.667,156.167 449,157.5C 450.061,162.104 450.727,166.771 451,171.5C 451.807,173.577 452.974,175.411 454.5,177C 454.167,179.524 453,182.024 451,184.5C 449.795,185.071 448.628,185.738 447.5,186.5C 448.641,187.425 448.641,188.259 447.5,189C 449.119,189.236 450.119,190.069 450.5,191.5C 445.688,196.12 439.855,198.12 433,197.5C 429.833,197.333 426.667,197.167 423.5,197C 422.944,196.617 422.611,196.117 422.5,195.5C 420.964,192.449 418.797,189.783 416,187.5C 414.865,180.244 413.365,173.077 411.5,166C 412.108,157.741 413.275,149.574 415,141.5C 415.667,140.833 416.333,140.167 417,139.5C 418.814,140.76 420.647,140.76 422.5,139.5C 421.511,138.532 420.844,137.365 420.5,136C 421.322,133.528 421.989,131.028 422.5,128.5C 430.617,120.598 440.284,118.432 451.5,122C 453.156,123.829 455.156,125.163 457.5,126C 460.549,133.949 461.216,142.115 459.5,150.5C 458.624,151.251 457.624,151.751 456.5,152C 451.824,152.706 447.157,153.04 442.5,153C 442,152.5 441.5,152 441,151.5C 440.501,147.514 440.334,143.514 440.5,139.5C 437.988,139.423 435.988,140.423 434.5,142.5C 428.66,153.598 427.16,165.265 430,177.5C 431.726,178.576 433.559,178.743 435.5,178C 436.598,177.23 436.598,176.397 435.5,175.5 Z"/></g>
<g><path style="opacity:1" fill="#e3a372" d="M 502.5,201.5 C 502.751,199.83 503.418,198.33 504.5,197C 507.817,196.502 511.15,196.335 514.5,196.5C 514.187,193.753 514.52,191.086 515.5,188.5C 516.59,189.391 516.59,190.391 515.5,191.5C 520.785,193.857 523.452,192.191 523.5,186.5C 520.951,185.491 518.285,184.658 515.5,184C 513.342,182.688 513.009,181.022 514.5,179C 516.769,178.242 518.936,178.409 521,179.5C 522.438,178.1 523.271,176.433 523.5,174.5C 521.167,174.5 518.833,174.5 516.5,174.5C 516.614,170.789 517.614,167.455 519.5,164.5C 515.143,165.166 513.143,167.5 513.5,171.5C 511.518,172.623 509.518,172.623 507.5,171.5C 512.951,155.248 514.451,138.582 512,121.5C 511.148,120.429 510.315,119.429 509.5,118.5C 509.259,115.001 510.092,114.668 512,117.5C 513.092,120.044 513.759,122.711 514,125.5C 514.624,127.754 515.957,129.421 518,130.5C 518.556,132.885 518.39,135.218 517.5,137.5C 516.402,139.642 517.236,140.975 520,141.5C 520.709,145.868 520.542,150.201 519.5,154.5C 519.97,156.774 520.97,158.774 522.5,160.5C 522.935,156.466 524.601,152.132 527.5,147.5C 526.979,145.476 526.812,143.476 527,141.5C 528.049,140.483 529.216,140.316 530.5,141C 531.787,142.41 532.954,143.91 534,145.5C 533.92,140.365 534.753,135.531 536.5,131C 534.197,126.863 532.864,122.03 532.5,116.5C 531.178,116.67 530.011,116.337 529,115.5C 529.02,111.238 527.853,107.405 525.5,104C 524.056,103.219 522.723,103.386 521.5,104.5C 522.5,105.833 523.5,107.167 524.5,108.5C 523.424,109.656 522.424,109.489 521.5,108C 517.789,107.825 514.122,107.325 510.5,106.5C 509.833,105.833 509.167,105.167 508.5,104.5C 509.833,102.833 509.833,101.167 508.5,99.5C 505.787,98.0521 503.787,98.7188 502.5,101.5C 504.027,103.33 503.527,104.33 501,104.5C 497.457,102.595 494.624,103.261 492.5,106.5C 491.38,105.167 490.047,104.667 488.5,105C 483.854,108.642 480.354,113.142 478,118.5C 477.536,117.906 477.369,117.239 477.5,116.5C 486.557,96.6326 501.557,90.4659 522.5,98C 527.4,101.897 531.566,106.397 535,111.5C 542.84,136.576 541.34,161.076 530.5,185C 525.358,192.238 518.691,197.571 510.5,201C 507.854,201.497 505.187,201.664 502.5,201.5 Z"/></g>
<g><path style="opacity:1" fill="#ea9b63" d="M 320.5,193.5 C 310.871,196.985 300.871,198.318 290.5,197.5C 289.413,195.016 288.747,192.349 288.5,189.5C 290.907,177.297 292.241,164.963 292.5,152.5C 293.822,152.67 294.989,152.337 296,151.5C 296.471,146.156 296.971,140.822 297.5,135.5C 296.07,135.421 294.736,135.754 293.5,136.5C 292.571,135.311 292.238,133.978 292.5,132.5C 294.92,132.708 297.253,132.374 299.5,131.5C 300.693,136.965 301.693,142.465 302.5,148C 303.197,158.369 303.863,168.536 304.5,178.5C 307.538,179.367 310.538,179.034 313.5,177.5C 317.223,170.723 320.39,163.723 323,156.5C 323.202,158.256 323.702,159.922 324.5,161.5C 328.276,163.116 327.942,164.116 323.5,164.5C 324.682,166.814 326.015,169.148 327.5,171.5C 328.731,170.349 328.731,169.183 327.5,168C 328.563,166.812 329.897,166.312 331.5,166.5C 331.662,168.527 331.495,170.527 331,172.5C 328.762,174.309 327.595,176.642 327.5,179.5C 326.5,179.5 325.5,179.5 324.5,179.5C 324.5,181.167 324.5,182.833 324.5,184.5C 322.876,184.36 321.71,185.027 321,186.5C 319.585,188.843 319.418,191.177 320.5,193.5 Z"/></g>
<g><path style="opacity:1" fill="#efd089" d="M 116.5,131.5 C 114.053,134.776 111.053,137.61 107.5,140C 97.2611,143.25 86.9278,146.25 76.5,149C 56.9287,156.578 41.5954,169.078 30.5,186.5C 27.8109,189.52 25.4776,192.853 23.5,196.5C 22.068,202.033 20.068,207.367 17.5,212.5C 16.8133,210.726 15.9799,209.059 15,207.5C 14.5005,198.489 14.6672,189.489 15.5,180.5C 18.8881,169.778 25.5548,161.778 35.5,156.5C 47.5226,152.572 59.8559,149.072 72.5,146C 74.2909,145.585 75.6243,144.585 76.5,143C 78.1667,142.667 79.8333,142.333 81.5,142C 83.957,139.81 87.2903,138.477 91.5,138C 93.7368,132.239 97.7368,128.739 103.5,127.5C 105.491,124.908 107.824,122.742 110.5,121C 111.833,120.333 113.167,120.333 114.5,121C 114.043,121.414 113.709,121.914 113.5,122.5C 116.228,124.781 117.228,127.781 116.5,131.5 Z"/></g>
<g><path style="opacity:1" fill="#7f2d1b" d="M 256.5,156.5 C 257.167,156.5 257.5,156.833 257.5,157.5C 257.443,158.609 257.11,159.609 256.5,160.5C 253.671,163.892 250.005,165.559 245.5,165.5C 247.31,176.055 247.976,186.721 247.5,197.5C 249.735,197.795 251.735,197.461 253.5,196.5C 258.132,195.186 262.132,192.853 265.5,189.5C 266.043,189.56 266.376,189.893 266.5,190.5C 264.146,192.246 263.146,194.579 263.5,197.5C 257.616,200.101 251.616,202.101 245.5,203.5C 244.883,203.611 244.383,203.944 244,204.5C 243.506,202.866 243.34,201.199 243.5,199.5C 244.268,198.737 244.768,197.737 245,196.5C 245.667,188.5 245.667,180.5 245,172.5C 243.829,168.173 241.996,164.173 239.5,160.5C 239.56,159.957 239.893,159.624 240.5,159.5C 241.524,160.853 242.857,161.52 244.5,161.5C 246.527,161.662 248.527,161.495 250.5,161C 251.085,159.698 251.751,158.531 252.5,157.5C 253.833,157.167 255.167,156.833 256.5,156.5 Z"/></g>
<g><path style="opacity:0.988" fill="#e79d66" d="M 372.5,143.5 C 369.546,152.919 368.379,162.586 369,172.5C 369.386,176.608 371.553,178.108 375.5,177C 376.085,175.698 376.751,174.531 377.5,173.5C 378.458,173.047 379.292,172.381 380,171.5C 380.483,172.448 380.649,173.448 380.5,174.5C 382.199,174.34 383.866,174.506 385.5,175C 387.334,179.675 385.667,181.508 380.5,180.5C 380.286,182.144 380.62,183.644 381.5,185C 379.527,185.495 377.527,185.662 375.5,185.5C 375.5,187.5 375.5,189.5 375.5,191.5C 376.978,191.238 378.311,191.571 379.5,192.5C 377.909,194.984 375.575,195.984 372.5,195.5C 368.806,194.768 365.139,193.935 361.5,193C 359.772,190.418 357.439,188.918 354.5,188.5C 354.388,184.471 353.221,180.805 351,177.5C 350.825,172.981 350.325,168.647 349.5,164.5C 349.5,162.5 349.5,160.5 349.5,158.5C 351.474,153.818 352.641,148.818 353,143.5C 353.333,143.833 353.667,144.167 354,144.5C 356.045,140.398 357.545,136.065 358.5,131.5C 363.26,126.954 368.926,124.287 375.5,123.5C 376.994,123.709 378.161,124.376 379,125.5C 379.667,128.167 379.667,130.833 379,133.5C 376.619,132.565 374.119,132.232 371.5,132.5C 371.251,135.002 370.917,137.502 370.5,140C 370.608,141.681 371.275,142.848 372.5,143.5 Z"/></g>
<g><path style="opacity:1" fill="#f39865" d="M 69.5,174.5 C 71.4807,176.144 73.4807,177.81 75.5,179.5C 79.2093,180.188 82.5427,181.688 85.5,184C 95.2242,186.895 104.891,189.895 114.5,193C 116.137,195.31 118.304,196.81 121,197.5C 121.825,199.701 121.325,201.534 119.5,203C 117.167,203.667 114.833,203.667 112.5,203C 100.413,198.976 88.4126,194.642 76.5,190C 67.5572,187.392 58.5572,187.059 49.5,189C 45.0674,195.005 46.0674,199.838 52.5,203.5C 51.5837,203.018 50.5837,202.685 49.5,202.5C 47.4229,203.937 45.0895,204.604 42.5,204.5C 42.4609,202.641 43.2942,201.308 45,200.5C 44.9968,196.258 45.8301,192.258 47.5,188.5C 51.1228,186.711 54.9561,185.711 59,185.5C 66.6744,186.335 74.1744,188.002 81.5,190.5C 82.4287,189.311 82.762,187.978 82.5,186.5C 80.712,186.785 79.0453,186.452 77.5,185.5C 77.8333,184.833 78.1667,184.167 78.5,183.5C 77.2713,182.719 75.938,182.219 74.5,182C 72.2436,179.878 70.577,177.378 69.5,174.5 Z"/></g>
<g><path style="opacity:1" fill="#de464c" d="M 164.5,168.5 C 162.146,168.162 159.813,167.662 157.5,167C 147.825,162.486 138.158,157.819 128.5,153C 124.5,152.333 120.5,152.333 116.5,153C 111.028,154.875 110.028,158.209 113.5,163C 117.714,163.837 121.714,165.17 125.5,167C 130.51,167.787 135.51,168.62 140.5,169.5C 145.32,171.101 149.653,173.435 153.5,176.5C 153.89,180.691 152.557,184.024 149.5,186.5C 143.313,188.348 136.98,188.848 130.5,188C 126.249,185.429 121.582,183.762 116.5,183C 112.318,181.077 108.318,178.911 104.5,176.5C 103.013,175.196 101.346,174.03 99.5,173C 95.0259,171.592 90.6926,169.925 86.5,168C 82.8333,167.333 79.1667,167.333 75.5,168C 74.335,170.715 75.0017,173.048 77.5,175C 86.3994,179.688 95.7327,182.855 105.5,184.5C 112.196,187.071 118.53,190.404 124.5,194.5C 127.736,199.468 127.069,203.635 122.5,207C 117.798,207.828 113.131,207.662 108.5,206.5C 100.211,202.681 91.544,200.181 82.5,199C 73.2501,193.552 63.2501,191.385 52.5,192.5C 52.2148,194.288 52.5481,195.955 53.5,197.5C 55.1315,198.297 56.6315,199.297 58,200.5C 69.2819,203.071 80.4485,205.904 91.5,209C 92.9733,209.71 93.6399,210.876 93.5,212.5C 79.2658,211.857 65.5991,208.857 52.5,203.5C 46.0674,199.838 45.0674,195.005 49.5,189C 58.5572,187.059 67.5572,187.392 76.5,190C 88.4126,194.642 100.413,198.976 112.5,203C 114.833,203.667 117.167,203.667 119.5,203C 121.325,201.534 121.825,199.701 121,197.5C 118.304,196.81 116.137,195.31 114.5,193C 104.891,189.895 95.2242,186.895 85.5,184C 82.5427,181.688 79.2093,180.188 75.5,179.5C 73.4807,177.81 71.4807,176.144 69.5,174.5C 69.5,173.833 69.5,173.167 69.5,172.5C 69.2011,170.396 69.5344,168.396 70.5,166.5C 71.8333,165.833 72.8333,164.833 73.5,163.5C 80.3091,162.037 86.9758,162.537 93.5,165C 105.116,172.206 117.449,177.873 130.5,182C 135.5,182.667 140.5,182.667 145.5,182C 146.357,181.311 147.023,180.478 147.5,179.5C 145.137,176.82 142.137,175.487 138.5,175.5C 138.5,174.5 138.5,173.5 138.5,172.5C 125.432,173.535 114.265,169.535 105,160.5C 104.503,157.854 104.336,155.187 104.5,152.5C 107.5,152.833 108.833,151.5 108.5,148.5C 109.568,147.566 110.901,147.232 112.5,147.5C 117.511,147.334 122.511,147.501 127.5,148C 138.032,152.449 148.365,156.949 158.5,161.5C 163.585,164.364 168.585,164.031 173.5,160.5C 174.369,156.426 172.703,153.592 168.5,152C 164.187,151.265 159.853,150.765 155.5,150.5C 152.572,150.435 149.905,149.768 147.5,148.5C 147.5,147.5 147.5,146.5 147.5,145.5C 158.689,143.871 168.855,146.204 178,152.5C 180.264,158.462 179.098,163.629 174.5,168C 171.183,168.498 167.85,168.665 164.5,168.5 Z"/></g>
<g><path style="opacity:1" fill="#f78f6a" d="M 104.5,176.5 C 100.026,174.901 95.3594,173.735 90.5,173C 86.6938,170.354 82.3605,169.187 77.5,169.5C 77.5,170.5 77.5,171.5 77.5,172.5C 80.5497,171.923 82.5497,173.09 83.5,176C 89.5895,178.623 95.9228,180.623 102.5,182C 103.571,182.852 104.571,183.685 105.5,184.5C 95.7327,182.855 86.3994,179.688 77.5,175C 75.0017,173.048 74.335,170.715 75.5,168C 79.1667,167.333 82.8333,167.333 86.5,168C 90.6926,169.925 95.0259,171.592 99.5,173C 101.346,174.03 103.013,175.196 104.5,176.5 Z"/></g>
<g><path style="opacity:1" fill="#d87957" d="M 155.5,150.5 C 159.853,150.765 164.187,151.265 168.5,152C 172.703,153.592 174.369,156.426 173.5,160.5C 168.585,164.031 163.585,164.364 158.5,161.5C 160.861,161.674 163.194,162.007 165.5,162.5C 165.372,155.714 162.039,151.714 155.5,150.5 Z"/></g>
<g><path style="opacity:1" fill="#f19b64" d="M 104.5,176.5 C 108.318,178.911 112.318,181.077 116.5,183C 121.582,183.762 126.249,185.429 130.5,188C 136.98,188.848 143.313,188.348 149.5,186.5C 140.967,191.969 133.3,198.636 126.5,206.5C 125.675,208.801 125.008,211.135 124.5,213.5C 123.833,213.167 123.167,212.833 122.5,212.5C 115.656,211.809 109.322,213.142 103.5,216.5C 98.2082,219.24 92.5415,221.24 86.5,222.5C 83.3123,221.958 80.3123,220.958 77.5,219.5C 77.5,218.5 77.5,217.5 77.5,216.5C 74.7277,216.405 72.7277,215.071 71.5,212.5C 70.675,211.614 69.675,211.281 68.5,211.5C 63.6538,208.664 58.3205,206.998 52.5,206.5C 52.5,205.5 52.5,204.5 52.5,203.5C 65.5991,208.857 79.2658,211.857 93.5,212.5C 93.6399,210.876 92.9733,209.71 91.5,209C 80.4485,205.904 69.2819,203.071 58,200.5C 56.6315,199.297 55.1315,198.297 53.5,197.5C 52.5481,195.955 52.2148,194.288 52.5,192.5C 63.2501,191.385 73.2501,193.552 82.5,199C 91.544,200.181 100.211,202.681 108.5,206.5C 113.131,207.662 117.798,207.828 122.5,207C 127.069,203.635 127.736,199.468 124.5,194.5C 118.53,190.404 112.196,187.071 105.5,184.5C 104.571,183.685 103.571,182.852 102.5,182C 95.9228,180.623 89.5895,178.623 83.5,176C 82.5497,173.09 80.5497,171.923 77.5,172.5C 77.5,171.5 77.5,170.5 77.5,169.5C 82.3605,169.187 86.6938,170.354 90.5,173C 95.3594,173.735 100.026,174.901 104.5,176.5 Z"/></g>
<g><path style="opacity:1" fill="#e4b481" d="M 15.5,180.5 C 14.6672,189.489 14.5005,198.489 15,207.5C 15.9799,209.059 16.8133,210.726 17.5,212.5C 20.068,207.367 22.068,202.033 23.5,196.5C 25.4776,192.853 27.8109,189.52 30.5,186.5C 25.5273,195.512 21.5273,205.012 18.5,215C 18.1639,216.03 17.4972,216.53 16.5,216.5C 16.5,215.833 16.1667,215.5 15.5,215.5C 13.5391,209.626 12.5391,203.459 12.5,197C 12.3875,191.163 13.3875,185.663 15.5,180.5 Z"/></g>
<g><path style="opacity:1" fill="#ecbc83" d="M 172.5,183.5 C 170.034,186.843 167.034,189.51 163.5,191.5C 161.176,191.662 159.509,192.828 158.5,195C 153.702,195.655 149.035,196.822 144.5,198.5C 142.73,199.82 142.397,201.32 143.5,203C 141.212,203.946 139.045,205.113 137,206.5C 134.872,210.268 132.706,213.935 130.5,217.5C 130.5,217.167 130.5,216.833 130.5,216.5C 131.719,212.76 133.219,209.093 135,205.5C 137.656,202.678 140.489,200.012 143.5,197.5C 153.066,192.55 162.733,187.883 172.5,183.5 Z"/></g>
<g><path style="opacity:1" fill="#e59e69" d="M 517.5,137.5 C 518.39,135.218 518.556,132.885 518,130.5C 515.957,129.421 514.624,127.754 514,125.5C 513.759,122.711 513.092,120.044 512,117.5C 510.092,114.668 509.259,115.001 509.5,118.5C 507.128,117.447 505.128,118.114 503.5,120.5C 498.059,132.365 495.726,144.865 496.5,158C 496.415,163.248 496.915,168.415 498,173.5C 499.329,174.494 500.662,175.494 502,176.5C 504.343,175.321 506.176,173.654 507.5,171.5C 509.518,172.623 511.518,172.623 513.5,171.5C 513.143,167.5 515.143,165.166 519.5,164.5C 517.614,167.455 516.614,170.789 516.5,174.5C 518.833,174.5 521.167,174.5 523.5,174.5C 523.271,176.433 522.438,178.1 521,179.5C 518.936,178.409 516.769,178.242 514.5,179C 513.009,181.022 513.342,182.688 515.5,184C 518.285,184.658 520.951,185.491 523.5,186.5C 523.452,192.191 520.785,193.857 515.5,191.5C 516.59,190.391 516.59,189.391 515.5,188.5C 514.52,191.086 514.187,193.753 514.5,196.5C 511.15,196.335 507.817,196.502 504.5,197C 503.418,198.33 502.751,199.83 502.5,201.5C 498.818,201.665 495.152,201.499 491.5,201C 489.365,199.619 487.032,198.619 484.5,198C 483.619,197.292 482.953,196.458 482.5,195.5C 482.5,195.167 482.5,194.833 482.5,194.5C 482.435,194.062 482.601,193.728 483,193.5C 484.789,195.229 486.956,195.896 489.5,195.5C 487.377,192.883 485.377,190.05 483.5,187C 483.667,186.5 483.833,186 484,185.5C 484.741,186.641 485.575,186.641 486.5,185.5C 487.273,183.187 487.94,180.854 488.5,178.5C 491.167,177.833 493.833,177.167 496.5,176.5C 495.067,173.667 494.4,170.667 494.5,167.5C 493.5,167.5 492.5,167.5 491.5,167.5C 491.659,162.889 492.325,158.389 493.5,154C 493.326,144.406 492.826,134.906 492,125.5C 492.741,126.641 493.575,126.641 494.5,125.5C 494.753,122.267 496.253,119.934 499,118.5C 501.006,112.611 504.84,111.111 510.5,114C 512.657,117.156 515.157,119.989 518,122.5C 521.479,127.807 521.312,132.807 517.5,137.5 Z"/></g>
<g><path style="opacity:1" fill="#d27955" d="M 129.5,213.5 C 128.833,214.167 128.167,214.833 127.5,215.5C 125.973,215.573 124.973,214.906 124.5,213.5C 125.008,211.135 125.675,208.801 126.5,206.5C 133.3,198.636 140.967,191.969 149.5,186.5C 152.557,184.024 153.89,180.691 153.5,176.5C 154.586,176.62 155.253,177.287 155.5,178.5C 154.957,179.864 154.79,181.197 155,182.5C 162.444,180.581 165.61,175.914 164.5,168.5C 167.85,168.665 171.183,168.498 174.5,168C 179.098,163.629 180.264,158.462 178,152.5C 168.855,146.204 158.689,143.871 147.5,145.5C 147.5,146.5 147.5,147.5 147.5,148.5C 143.154,148.666 138.821,148.499 134.5,148C 131.464,144.803 127.797,142.637 123.5,141.5C 121.823,142.187 120.156,142.854 118.5,143.5C 120.616,141.271 122.949,139.271 125.5,137.5C 129.107,136.511 132.774,136.177 136.5,136.5C 136.244,138.792 136.577,140.959 137.5,143C 141.431,143.929 144.931,143.096 148,140.5C 149.479,141.756 151.145,142.756 153,143.5C 155.527,142.241 158.194,141.241 161,140.5C 165.101,142.801 169.268,144.967 173.5,147C 180.934,148.316 188.268,149.816 195.5,151.5C 188.281,161.532 180.615,171.032 172.5,180C 161.664,185.909 150.664,191.742 139.5,197.5C 134.895,202.091 131.561,207.425 129.5,213.5 Z"/></g>
<g><path style="opacity:1" fill="#e69c68" d="M 257.5,167.5 C 259.122,174.39 261.789,180.724 265.5,186.5C 265.5,187.5 265.5,188.5 265.5,189.5C 262.132,192.853 258.132,195.186 253.5,196.5C 252.414,196.38 251.747,195.713 251.5,194.5C 252.291,186.085 253.625,177.751 255.5,169.5C 255.747,168.287 256.414,167.62 257.5,167.5 Z"/></g>
<g><path style="opacity:1" fill="#efd89e" d="M 163.5,191.5 C 165.857,191.337 168.19,191.503 170.5,192C 171.747,193.494 171.747,194.994 170.5,196.5C 166.587,196.759 164.587,198.759 164.5,202.5C 158.221,200.974 153.888,203.141 151.5,209C 146.361,208.975 143.694,211.475 143.5,216.5C 141.856,216.286 140.356,216.62 139,217.5C 136.971,222.231 136.137,227.231 136.5,232.5C 135.167,232.5 133.833,232.5 132.5,232.5C 132.66,234.199 132.494,235.866 132,237.5C 130.743,231.231 130.243,224.898 130.5,218.5C 130.5,218.167 130.5,217.833 130.5,217.5C 132.706,213.935 134.872,210.268 137,206.5C 139.045,205.113 141.212,203.946 143.5,203C 142.397,201.32 142.73,199.82 144.5,198.5C 149.035,196.822 153.702,195.655 158.5,195C 159.509,192.828 161.176,191.662 163.5,191.5 Z"/></g>
<g><path style="opacity:1" fill="#e6ab79" d="M 68.5,211.5 C 69.675,211.281 70.675,211.614 71.5,212.5C 72.7277,215.071 74.7277,216.405 77.5,216.5C 77.5,217.5 77.5,218.5 77.5,219.5C 80.3123,220.958 83.3123,221.958 86.5,222.5C 92.5415,221.24 98.2082,219.24 103.5,216.5C 96.3888,223.191 88.0555,225.024 78.5,222C 77.1667,220.667 75.8333,219.333 74.5,218C 69.7684,216.534 65.1018,214.867 60.5,213C 53.1459,212.089 46.1459,213.256 39.5,216.5C 43.0029,212.475 47.5029,210.142 53,209.5C 58.0195,211.221 63.1862,211.887 68.5,211.5 Z"/></g>
<g><path style="opacity:1" fill="#fdfaf9" d="M 103.5,216.5 C 109.322,213.142 115.656,211.809 122.5,212.5C 120.686,223.096 120.186,233.763 121,244.5C 122.924,248.017 124.591,251.684 126,255.5C 128.498,258.22 130.998,261.053 133.5,264C 131.527,264.495 129.527,264.662 127.5,264.5C 125.804,262.732 124.47,260.565 123.5,258C 120.356,257.048 117.856,257.881 116,260.5C 115.219,265.554 115.386,270.554 116.5,275.5C 119.428,276.484 122.428,276.817 125.5,276.5C 131.147,275.52 134.48,272.186 135.5,266.5C 139.379,267.714 142.379,270.047 144.5,273.5C 138.978,281.337 131.645,287.004 122.5,290.5C 117.014,290.969 113.681,290.636 112.5,289.5C 112.899,286.029 114.399,285.696 117,288.5C 120.611,287.893 123.444,286.06 125.5,283C 124.956,281.053 123.623,280.22 121.5,280.5C 118.719,280.607 116.719,281.941 115.5,284.5C 114.376,279.279 113.542,279.279 113,284.5C 112.506,282.866 112.34,281.199 112.5,279.5C 110.064,279.317 107.897,279.984 106,281.5C 104.731,280.095 104.231,278.429 104.5,276.5C 109.703,276.619 111.703,274.285 110.5,269.5C 109.264,268.754 107.93,268.421 106.5,268.5C 106.517,266.435 106.85,264.435 107.5,262.5C 109.766,258.564 112.766,255.231 116.5,252.5C 117.404,251.791 117.737,250.791 117.5,249.5C 110.996,252.089 104.496,255.089 98,258.5C 87.4574,261.638 77.2907,260.805 67.5,256C 63.3462,253.34 59.3462,250.507 55.5,247.5C 55.1667,246.5 54.5,245.833 53.5,245.5C 52.791,244.596 51.791,244.263 50.5,244.5C 50.5,246.167 50.5,247.833 50.5,249.5C 46.4059,249.933 44.4059,252.266 44.5,256.5C 41.5,256.5 38.5,256.5 35.5,256.5C 35.1866,259.247 35.52,261.914 36.5,264.5C 41.2796,267.808 46.6129,269.475 52.5,269.5C 52.5,270.5 52.5,271.5 52.5,272.5C 45.239,274.344 38.239,273.677 31.5,270.5C 29.2232,265.613 27.2232,260.613 25.5,255.5C 25.5361,245.252 27.0361,235.252 30,225.5C 32.4057,221.592 35.5724,218.592 39.5,216.5C 46.1459,213.256 53.1459,212.089 60.5,213C 65.1018,214.867 69.7684,216.534 74.5,218C 75.8333,219.333 77.1667,220.667 78.5,222C 88.0555,225.024 96.3888,223.191 103.5,216.5 Z"/></g>
<g><path style="opacity:1" fill="#eca066" d="M 69.5,172.5 C 69.5,173.167 69.5,173.833 69.5,174.5C 70.577,177.378 72.2436,179.878 74.5,182C 75.938,182.219 77.2713,182.719 78.5,183.5C 78.1667,184.167 77.8333,184.833 77.5,185.5C 79.0453,186.452 80.712,186.785 82.5,186.5C 82.762,187.978 82.4287,189.311 81.5,190.5C 74.1744,188.002 66.6744,186.335 59,185.5C 54.9561,185.711 51.1228,186.711 47.5,188.5C 45.8301,192.258 44.9968,196.258 45,200.5C 43.2942,201.308 42.4609,202.641 42.5,204.5C 45.0895,204.604 47.4229,203.937 49.5,202.5C 50.5837,202.685 51.5837,203.018 52.5,203.5C 52.5,204.5 52.5,205.5 52.5,206.5C 58.3205,206.998 63.6538,208.664 68.5,211.5C 63.1862,211.887 58.0195,211.221 53,209.5C 47.5029,210.142 43.0029,212.475 39.5,216.5C 35.5724,218.592 32.4057,221.592 30,225.5C 27.0361,235.252 25.5361,245.252 25.5,255.5C 24.7321,253.285 24.0654,250.952 23.5,248.5C 19.4502,216.475 29.4502,189.975 53.5,169C 54.745,168.209 56.0783,167.709 57.5,167.5C 60.1391,167.429 62.3058,166.429 64,164.5C 64.9454,164.905 65.6121,165.572 66,166.5C 66.4955,168.473 66.6621,170.473 66.5,172.5C 67.5,172.5 68.5,172.5 69.5,172.5 Z"/></g>
<g><path style="opacity:1" fill="#f9d3ab" d="M 45.5,181.5 C 47.3547,181.272 48.1881,181.939 48,183.5C 41.3593,189.464 36.1926,196.464 32.5,204.5C 31.3861,203.277 31.2195,201.944 32,200.5C 34.1068,197.375 35.9401,194.042 37.5,190.5C 40.134,187.331 42.8006,184.331 45.5,181.5 Z"/></g>
<g><path style="opacity:1" fill="#83464a" d="M 82.5,232.5 C 84.2637,231.288 85.9303,231.621 87.5,233.5C 88.6199,232.167 89.9532,231.667 91.5,232C 90.7547,234.571 90.4213,237.071 90.5,239.5C 88.2534,238.626 85.9201,238.292 83.5,238.5C 83.7947,236.265 83.4614,234.265 82.5,232.5 Z"/></g>
<g><path style="opacity:1" fill="#dfc2c9" d="M 122.5,212.5 C 123.167,212.833 123.833,213.167 124.5,213.5C 124.973,214.906 125.973,215.573 127.5,215.5C 124.468,237.059 131.134,254.726 147.5,268.5C 147.727,270.933 146.727,272.599 144.5,273.5C 142.379,270.047 139.379,267.714 135.5,266.5C 134.48,272.186 131.147,275.52 125.5,276.5C 128.628,274.826 130.961,272.326 132.5,269C 130.93,267.322 129.263,265.822 127.5,264.5C 129.527,264.662 131.527,264.495 133.5,264C 130.998,261.053 128.498,258.22 126,255.5C 124.591,251.684 122.924,248.017 121,244.5C 120.186,233.763 120.686,223.096 122.5,212.5 Z"/></g>
<g><path style="opacity:0.263" fill="#733220" d="M 243.5,199.5 C 243.34,201.199 243.506,202.866 244,204.5C 244.383,203.944 244.883,203.611 245.5,203.5C 245.162,205.854 244.662,208.187 244,210.5C 238.825,220.193 233.158,229.526 227,238.5C 215.274,251.339 201.941,262.006 187,270.5C 179.859,272.952 172.526,274.618 165,275.5C 159.88,275.069 155.046,273.736 150.5,271.5C 149.1,270.9 148.1,269.9 147.5,268.5C 131.134,254.726 124.468,237.059 127.5,215.5C 128.167,214.833 128.833,214.167 129.5,213.5C 129.263,214.791 129.596,215.791 130.5,216.5C 130.5,216.833 130.5,217.167 130.5,217.5C 130.5,217.833 130.5,218.167 130.5,218.5C 129.347,224.319 129.181,230.319 130,236.5C 131.648,241.491 133.315,246.491 135,251.5C 139.367,260.363 146.201,266.696 155.5,270.5C 165.079,272.221 174.413,271.388 183.5,268C 213.088,253.265 233.088,230.432 243.5,199.5 Z"/></g>
<g><path style="opacity:1" fill="#f3c0de" d="M 127.5,264.5 C 129.263,265.822 130.93,267.322 132.5,269C 130.961,272.326 128.628,274.826 125.5,276.5C 122.428,276.817 119.428,276.484 116.5,275.5C 115.386,270.554 115.219,265.554 116,260.5C 117.856,257.881 120.356,257.048 123.5,258C 124.47,260.565 125.804,262.732 127.5,264.5 Z"/></g>
<g><path style="opacity:1" fill="#ddb7bb" d="M 55.5,247.5 C 59.3462,250.507 63.3462,253.34 67.5,256C 77.2907,260.805 87.4574,261.638 98,258.5C 104.496,255.089 110.996,252.089 117.5,249.5C 117.737,250.791 117.404,251.791 116.5,252.5C 115.279,251.535 113.946,251.702 112.5,253C 108.207,257.632 104.207,262.466 100.5,267.5C 81.7087,268.919 66.7087,262.252 55.5,247.5 Z"/></g>
<g><path style="opacity:0.776" fill="#712e31" d="M 19.5,231.5 C 20.8333,237.167 22.1667,242.833 23.5,248.5C 24.0654,250.952 24.7321,253.285 25.5,255.5C 27.2232,260.613 29.2232,265.613 31.5,270.5C 34.3774,273.73 37.3774,276.896 40.5,280C 42.6175,280.26 44.2842,281.26 45.5,283C 65.2766,288.303 72.11,281.137 66,261.5C 63.3333,259.5 60.6667,257.5 58,255.5C 56.3333,253.167 54.6667,250.833 53,248.5C 52.2599,247.251 52.4265,246.251 53.5,245.5C 54.5,245.833 55.1667,246.5 55.5,247.5C 66.7087,262.252 81.7087,268.919 100.5,267.5C 104.207,262.466 108.207,257.632 112.5,253C 113.946,251.702 115.279,251.535 116.5,252.5C 112.766,255.231 109.766,258.564 107.5,262.5C 100.436,268.372 98.6023,275.705 102,284.5C 107.244,292.544 114.078,294.544 122.5,290.5C 131.645,287.004 138.978,281.337 144.5,273.5C 146.727,272.599 147.727,270.933 147.5,268.5C 148.1,269.9 149.1,270.9 150.5,271.5C 142.787,284.534 131.454,292.534 116.5,295.5C 101.582,294.34 95.2482,286.34 97.5,271.5C 89.2937,270.822 81.2937,269.155 73.5,266.5C 73.5011,273.505 71.5011,279.838 67.5,285.5C 55.1557,290.909 44.489,288.742 35.5,279C 34.552,278.517 33.552,278.351 32.5,278.5C 32.6495,277.448 32.4828,276.448 32,275.5C 29.1391,272.228 26.6391,268.728 24.5,265C 23.7087,260.334 22.3754,255.834 20.5,251.5C 19.6195,244.864 19.2861,238.197 19.5,231.5 Z"/></g>
<g><path style="opacity:1" fill="#e2b6c4" d="M 53.5,245.5 C 52.4265,246.251 52.2599,247.251 53,248.5C 54.6667,250.833 56.3333,253.167 58,255.5C 60.6667,257.5 63.3333,259.5 66,261.5C 72.11,281.137 65.2766,288.303 45.5,283C 44.2842,281.26 42.6175,280.26 40.5,280C 37.3774,276.896 34.3774,273.73 31.5,270.5C 38.239,273.677 45.239,274.344 52.5,272.5C 52.5,271.5 52.5,270.5 52.5,269.5C 46.6129,269.475 41.2796,267.808 36.5,264.5C 35.52,261.914 35.1866,259.247 35.5,256.5C 38.5,256.5 41.5,256.5 44.5,256.5C 44.4059,252.266 46.4059,249.933 50.5,249.5C 50.5,247.833 50.5,246.167 50.5,244.5C 51.791,244.263 52.791,244.596 53.5,245.5 Z"/></g>
<g><path style="opacity:1" fill="#f2dee2" d="M 107.5,262.5 C 106.85,264.435 106.517,266.435 106.5,268.5C 107.93,268.421 109.264,268.754 110.5,269.5C 111.703,274.285 109.703,276.619 104.5,276.5C 104.231,278.429 104.731,280.095 106,281.5C 107.897,279.984 110.064,279.317 112.5,279.5C 112.34,281.199 112.506,282.866 113,284.5C 113.542,279.279 114.376,279.279 115.5,284.5C 116.719,281.941 118.719,280.607 121.5,280.5C 123.623,280.22 124.956,281.053 125.5,283C 123.444,286.06 120.611,287.893 117,288.5C 114.399,285.696 112.899,286.029 112.5,289.5C 113.681,290.636 117.014,290.969 122.5,290.5C 114.078,294.544 107.244,292.544 102,284.5C 98.6023,275.705 100.436,268.372 107.5,262.5 Z"/></g>
</svg>
